<svg width="32" height="32" viewBox="0 0 32 32" fill="none" xmlns="http://www.w3.org/2000/svg">
<rect width="32" height="32" fill="white"/>
<path d="M10.7679 6.93347H16.8499C19.2228 6.93347 21.1463 8.85703 21.1463 11.2299V11.7019H17.5279V11.0853C17.5279 10.7019 17.2181 10.3906 16.8347 10.3886L10.7679 10.3581V6.93347Z" fill="#8A31FF"/>
<path fill-rule="evenodd" clip-rule="evenodd" d="M21.1463 25.0666H10.6758C7.44298 25.0666 4.82228 22.4458 4.82227 19.213C4.82227 15.9802 7.44297 13.3595 10.6758 13.3595H21.1463V25.0666ZM10.6214 16.8934C9.34027 16.8934 8.30173 17.9319 8.30173 19.213C8.30175 20.4941 9.34028 21.5327 10.6214 21.5327H17.5581V16.8934H10.6214Z" fill="#8A31FF"/>
<path d="M27.1777 23.8466L22.7618 21.7312V16.6948L27.1777 14.5795V23.8466Z" fill="#8A31FF"/>
</svg>
