<svg width="125" height="125" viewBox="0 0 125 125" fill="none" xmlns="http://www.w3.org/2000/svg">
<rect width="125" height="125" fill="white"/>
<path d="M42.0622 27.0837H65.82C75.0888 27.0837 82.6027 34.5976 82.6027 43.8665V45.7105H68.4684V43.302C68.4684 41.8043 67.2582 40.588 65.7605 40.5805L42.0622 40.4611V27.0837Z" fill="#8A31FF"/>
<path fill-rule="evenodd" clip-rule="evenodd" d="M82.6027 97.9161H41.7023C29.0741 97.9161 18.837 87.679 18.8369 75.0507C18.8369 62.4225 29.0741 52.1853 41.7023 52.1853H82.6027V97.9161ZM41.4897 65.9896C36.4854 65.9897 32.4286 70.0464 32.4286 75.0507C32.4287 80.055 36.4854 84.1118 41.4897 84.1118H68.5862V65.9896H41.4897Z" fill="#8A31FF"/>
<path d="M106.163 93.1506L88.9133 84.8872V65.2138L106.163 56.9509V93.1506Z" fill="#8A31FF"/>
</svg>
